<?xml version="1.0" encoding="utf-8"?>
<!-- Generator: Adobe Illustrator 24.1.0, SVG Export Plug-In . SVG Version: 6.00 Build 0)  -->
<svg version="1.1" id="Layer_1" xmlns="http://www.w3.org/2000/svg" xmlns:xlink="http://www.w3.org/1999/xlink" x="0px" y="0px"
	 viewBox="0 0 80 47" style="enable-background:new 0 0 80 47;" xml:space="preserve">
<style type="text/css">
	.st0{display:none;fill:url(#SVGID_1_);}
	.st1{fill:url(#SVGID_2_);}
	.st2{clip-path:url(#SVGID_4_);}
	.st3{fill:url(#SVGID_5_);}
</style>
<g>
	<linearGradient id="SVGID_1_" gradientUnits="userSpaceOnUse" x1="10.5" y1="23.25" x2="25.3182" y2="23.25">
		<stop  offset="0" style="stop-color:#005BAA"/>
		<stop  offset="1" style="stop-color:#C82AFF"/>
	</linearGradient>
	<line class="st0" x1="10.5" y1="11.5" x2="25.32" y2="35"/>
	<linearGradient id="SVGID_2_" gradientUnits="userSpaceOnUse" x1="17.9092" y1="6.746" x2="17.9092" y2="42.5092">
		<stop  offset="0" style="stop-color:#005BAA"/>
		<stop  offset="1" style="stop-color:#C82AFF"/>
	</linearGradient>
	<path class="st1" d="M25.33,42c-2.32,0-4.6-1.16-5.93-3.27L4.58,15.23C2.52,11.96,3.5,7.64,6.77,5.58
		c3.27-2.06,7.59-1.08,9.65,2.19l14.82,23.5c2.06,3.27,1.08,7.59-2.19,9.65C27.89,41.65,26.6,42,25.33,42z"/>
</g>
<g>
	<defs>
		<polygon id="SVGID_3_" points="33,10 13,42 56,52 86,27 87,0 33,-4 		"/>
	</defs>
	<clipPath id="SVGID_4_">
		<use xlink:href="#SVGID_3_"  style="overflow:visible;"/>
	</clipPath>
	<g class="st2">
		<linearGradient id="SVGID_5_" gradientUnits="userSpaceOnUse" x1="40.3635" y1="41.0594" x2="40.3635" y2="5.2934">
			<stop  offset="0" style="stop-color:#000019"/>
			<stop  offset="1" style="stop-color:#2A44FF"/>
		</linearGradient>
		<path class="st3" d="M55.18,42L55.18,42c-2.4,0-4.64-1.23-5.92-3.27l-8.9-14.11l-8.9,14.11C30.18,40.77,27.95,42,25.55,42
			s-4.64-1.23-5.92-3.27L4.81,15.23c-2.06-3.27-1.08-7.59,2.19-9.65c3.27-2.06,7.59-1.08,9.65,2.19l8.9,14.11l8.9-14.11
			c1.28-2.03,3.52-3.27,5.92-3.27l0,0c2.4,0,4.64,1.23,5.92,3.27l8.9,14.11l8.9-14.11c2.06-3.27,6.38-4.25,9.65-2.19
			c3.27,2.06,4.25,6.38,2.19,9.65L61.1,38.73C59.82,40.77,57.58,42,55.18,42z"/>
	</g>
</g>
</svg>
