<?xml version="1.0" encoding="UTF-8" standalone="no"?>
<!-- Created with Inkscape (http://www.inkscape.org/) -->

<svg
   width="60mm"
   height="8mm"
   viewBox="0 0 60 8"
   version="1.1"
   id="svg5"
   xmlns="http://www.w3.org/2000/svg"
   xmlns:svg="http://www.w3.org/2000/svg">
  <defs
     id="defs2">
    <rect
       x="180.24561"
       y="396.18341"
       width="458.64478"
       height="221.29164"
       id="rect3774" />
  </defs>
  <g
     id="layer1">
    <g
       id="g11140"
       transform="translate(-48.918761,-106.78358)">
      <path
         d="m 59.628111,107.04957 -1.93675,7.4295 h -2.19075 l -1.185333,-4.8895 -1.227667,4.8895 h -2.19075 l -1.883833,-7.4295 h 1.93675 l 1.068917,5.40808 1.322916,-5.40808 h 1.989667 l 1.27,5.40808 1.0795,-5.40808 z"
         style="font-weight:bold;font-size:40px;line-height:1.25;font-family:Poppins;-inkscape-font-specification:'Poppins Bold';white-space:pre;stroke-width:0.264583"
         id="path11089" />
      <path
         d="m 64.112634,113.16674 h -2.772833 l -0.4445,1.31233 h -1.894417 l 2.688167,-7.4295 h 2.0955 l 2.688166,7.4295 h -1.915583 z m -0.465667,-1.397 -0.92075,-2.71992 -0.910166,2.71992 z"
         style="font-weight:bold;font-size:40px;line-height:1.25;font-family:Poppins;-inkscape-font-specification:'Poppins Bold';white-space:pre;stroke-width:0.264583"
         id="path11091" />
      <path
         d="m 71.069355,114.47907 -1.545166,-2.80458 h -0.433917 v 2.80458 h -1.80975 v -7.4295 h 3.037417 q 0.878416,0 1.49225,0.30692 0.624416,0.30691 0.931333,0.84666 0.306917,0.52917 0.306917,1.18534 0,0.74083 -0.423334,1.32291 -0.41275,0.58209 -1.227666,0.8255 l 1.7145,2.94217 z m -1.979083,-4.08517 h 1.121833 q 0.497417,0 0.740834,-0.24341 0.254,-0.24342 0.254,-0.68792 0,-0.42333 -0.254,-0.66675 -0.243417,-0.24342 -0.740834,-0.24342 h -1.121833 z"
         style="font-weight:bold;font-size:40px;line-height:1.25;font-family:Poppins;-inkscape-font-specification:'Poppins Bold';white-space:pre;stroke-width:0.264583"
         id="path11093" />
      <path
         d="m 79.846576,109.4414 q 0,0.64559 -0.296333,1.18534 -0.296333,0.52916 -0.910167,0.85725 -0.613833,0.32808 -1.524,0.32808 h -1.121833 v 2.667 h -1.80975 v -7.4295 h 2.931583 q 0.889,0 1.502834,0.30692 0.613833,0.30691 0.92075,0.84666 0.306916,0.53975 0.306916,1.23825 z m -2.868083,0.93134 q 0.518583,0 0.772583,-0.24342 0.254,-0.24342 0.254,-0.68792 0,-0.4445 -0.254,-0.68791 -0.254,-0.24342 -0.772583,-0.24342 h -0.98425 v 1.86267 z"
         style="font-weight:bold;font-size:40px;line-height:1.25;font-family:Poppins;-inkscape-font-specification:'Poppins Bold';white-space:pre;stroke-width:0.264583"
         id="path11095" />
      <path
         d="m 85.71024,109.39907 q -0.201083,-0.37042 -0.582083,-0.56092 -0.370417,-0.20108 -0.878417,-0.20108 -0.878416,0 -1.407583,0.58208 -0.529166,0.5715 -0.529166,1.53459 0,1.02658 0.550333,1.60866 0.560916,0.5715 1.534583,0.5715 0.66675,0 1.121833,-0.33866 0.465667,-0.33867 0.677334,-0.97367 H 83.90049 v -1.3335 h 3.937 v 1.68275 q -0.201083,0.67733 -0.687916,1.25942 -0.47625,0.58208 -1.217084,0.94191 -0.740833,0.35984 -1.672166,0.35984 -1.100667,0 -1.9685,-0.47625 -0.85725,-0.48684 -1.344083,-1.34409 -0.47625,-0.85725 -0.47625,-1.95791 0,-1.10067 0.47625,-1.95792 0.486833,-0.86783 1.344083,-1.34408 0.85725,-0.48684 1.957916,-0.48684 1.3335,0 2.243667,0.64559 0.92075,0.64558 1.217083,1.78858 z"
         style="font-weight:bold;font-size:40px;line-height:1.25;font-family:Poppins;-inkscape-font-specification:'Poppins Bold';white-space:pre;stroke-width:0.264583"
         id="path11097" />
      <path
         d="m 93.464847,113.16674 h -2.772833 l -0.4445,1.31233 h -1.894417 l 2.688167,-7.4295 h 2.0955 l 2.688166,7.4295 h -1.915583 z m -0.465667,-1.397 -0.92075,-2.71992 -0.910166,2.71992 z"
         style="font-weight:bold;font-size:40px;line-height:1.25;font-family:Poppins;-inkscape-font-specification:'Poppins Bold';white-space:pre;stroke-width:0.264583"
         id="path11099" />
      <path
         d="m 101.44815,107.04957 v 1.44992 h -1.968497 v 5.97958 h -1.809752 v -5.97958 h -1.9685 v -1.44992 z"
         style="font-weight:bold;font-size:40px;line-height:1.25;font-family:Poppins;-inkscape-font-specification:'Poppins Bold';white-space:pre;stroke-width:0.264583"
         id="path11101" />
      <path
         d="m 104.1765,108.49949 v 1.50283 h 2.42358 v 1.397 h -2.42358 v 1.62983 h 2.74108 v 1.44992 h -4.55083 v -7.4295 h 4.55083 v 1.44992 z"
         style="font-weight:bold;font-size:40px;line-height:1.25;font-family:Poppins;-inkscape-font-specification:'Poppins Bold';white-space:pre;stroke-width:0.264583"
         id="path11103" />
    </g>
  </g>
</svg>
