<?xml version="1.0" encoding="UTF-8" standalone="no"?>
<!-- Created with Inkscape (http://www.inkscape.org/) -->

<svg
   width="60mm"
   height="8mm"
   viewBox="0 0 60 8"
   version="1.1"
   id="svg5"
   sodipodi:docname="brand-dark.svg"
   inkscape:version="1.1 (c4e8f9e, 2021-05-24)"
   xmlns:inkscape="http://www.inkscape.org/namespaces/inkscape"
   xmlns:sodipodi="http://sodipodi.sourceforge.net/DTD/sodipodi-0.dtd"
   xmlns="http://www.w3.org/2000/svg"
   xmlns:svg="http://www.w3.org/2000/svg">
  <sodipodi:namedview
     id="namedview15"
     pagecolor="#ffffff"
     bordercolor="#666666"
     borderopacity="1.0"
     inkscape:pageshadow="2"
     inkscape:pageopacity="0.0"
     inkscape:pagecheckerboard="0"
     inkscape:document-units="mm"
     showgrid="false"
     inkscape:zoom="2.0998592"
     inkscape:cx="98.578038"
     inkscape:cy="10.476893"
     inkscape:window-width="1440"
     inkscape:window-height="772"
     inkscape:window-x="0"
     inkscape:window-y="204"
     inkscape:window-maximized="0"
     inkscape:current-layer="svg5" />
  <defs
     id="defs2">
    <rect
       x="180.24561"
       y="396.18341"
       width="458.64478"
       height="221.29164"
       id="rect3774" />
  </defs>
  <path
     d="m 11.538149,0.26599 -3.0395654,7.4295 h -2.19075 L 5.8482877,2.80599 3.8948336,7.69549 h -2.19075 L 0.92306998,0.26599 H 2.85982 L 3.1259729,5.67407 5.251653,0.26599 H 7.24132 L 7.7085559,5.67407 9.5908202,0.26599 Z"
     style="font-weight:bold;font-size:40px;line-height:1.25;font-family:Poppins;-inkscape-font-specification:'Poppins Bold';white-space:pre;stroke-width:0.264583;fill:#d2f0fd;fill-opacity:1"
     id="path11089" />
  <path
     d="M 14.900136,6.38316 H 12.127303 L 11.591175,7.69549 H 9.696758 l 3.206895,-7.4295 h 2.0955 l 2.169438,7.4295 h -1.915583 z m -0.368131,-1.397 -0.730842,-2.71992 -1.100074,2.71992 z"
     style="font-weight:bold;font-size:40px;line-height:1.25;font-family:Poppins;-inkscape-font-specification:'Poppins Bold';white-space:pre;stroke-width:0.264583;fill:#d2f0fd;fill-opacity:1"
     id="path11091" />
  <path
     d="M 21.621427,7.69549 20.076261,4.89091 h -0.433917 l 4e-6,2.80458 h -1.80975 v -7.4295 h 3.037417 q 0.878416,0 1.49225,0.30692 0.624416,0.30691 0.931333,0.84666 0.306917,0.52917 0.306917,1.18534 10e-7,0.74083 -0.423334,1.32291 -0.41275,0.58209 -1.227666,0.8255 l 1.714496,2.94217 z M 19.642344,3.61032 h 1.121833 q 0.497417,0 0.740834,-0.24341 0.254,-0.24342 0.254,-0.68792 1.1e-5,-0.42333 -0.254,-0.66675 -0.243417,-0.24342 -0.740834,-0.24342 h -1.121833 z"
     style="font-weight:bold;font-size:40px;line-height:1.25;font-family:Poppins;-inkscape-font-specification:'Poppins Bold';white-space:pre;stroke-width:0.264583;fill:#d2f0fd;fill-opacity:1"
     id="path11093" />
  <path
     d="m 29.90879,2.65782 q 0,0.64559 -0.296333,1.18534 -0.296333,0.52916 -0.910167,0.85725 -0.613833,0.32808 -1.524,0.32808 h -1.121833 v 2.667 h -1.80975 v -7.4295 h 2.931583 q 0.889,0 1.502834,0.30692 0.613833,0.30691 0.92075,0.84666 0.306916,0.53975 0.306916,1.23825 z m -2.868083,0.93134 q 0.518583,0 0.772583,-0.24342 0.254,-0.24342 0.254,-0.68792 0,-0.4445 -0.254,-0.68791 -0.254,-0.24342 -0.772583,-0.24342 h -0.98425 v 1.86267 z"
     style="font-weight:bold;font-size:40px;line-height:1.25;font-family:Poppins;-inkscape-font-specification:'Poppins Bold';white-space:pre;stroke-width:0.264583;fill:#d2f0fd;fill-opacity:1"
     id="path11095" />
  <path
     d="M 35.563571,2.61549 Q 35.362488,2.24507 34.981488,2.05457 34.611071,1.85349 34.103071,1.85349 q -0.878416,0 -1.407583,0.58208 -0.529166,0.5715 -0.529166,1.53459 0,1.02658 0.550333,1.60866 0.560916,0.5715 1.534583,0.5715 0.66675,0 1.121833,-0.33866 0.465667,-0.33867 0.677334,-0.97367 h -2.296584 v -1.3335 h 3.937 v 1.68275 q -0.201083,0.67733 -0.687916,1.25942 -0.47625,0.58208 -1.217084,0.94191 -0.740833,0.35984 -1.672166,0.35984 -1.100667,0 -1.9685,-0.47625 -0.85725,-0.48684 -1.344083,-1.34409 -0.47625,-0.85725 -0.47625,-1.95791 0,-1.10067 0.47625,-1.95792 0.486833,-0.86783 1.344083,-1.34408 0.85725,-0.48684 1.957916,-0.48684 1.3335,0 2.243667,0.64559 0.92075,0.64558 1.217083,1.78858 z"
     style="font-weight:bold;font-size:40px;line-height:1.25;font-family:Poppins;-inkscape-font-specification:'Poppins Bold';white-space:pre;stroke-width:0.264583;fill:#d2f0fd;fill-opacity:1"
     id="path11097" />
  <path
     d="m 42.606476,6.38316 h -2.772833 l -0.467407,1.31233 h -1.894417 l 2.817849,-7.4295 h 2.0955 l 2.558484,7.4295 H 43.028069 Z M 42.165193,4.98616 41.29192,2.26624 40.334277,4.98616 Z"
     style="font-weight:bold;font-size:40px;line-height:1.25;font-family:Poppins;-inkscape-font-specification:'Poppins Bold';white-space:pre;stroke-width:0.264583;fill:#d2f0fd;fill-opacity:1"
     id="path11099" />
  <path
     d="m 50.129387,0.26599 -2e-6,1.44992 h -1.968499 l 0,5.97958 h -1.809752 l 0,-5.97958 h -1.9685 l 2e-6,-1.44992 z"
     style="font-weight:bold;font-size:40px;line-height:1.25;font-family:Poppins;-inkscape-font-specification:'Poppins Bold';white-space:pre;stroke-width:0.264583;fill:#d2f0fd;fill-opacity:1"
     id="path11101" />
  <path
     d="m 52.634481,1.71591 2e-6,1.50283 h 2.42358 l 1.5e-5,1.397 h -2.42358 l -10e-7,1.62983 h 2.74108 l -2e-6,1.44992 h -4.55083 l 0,-7.4295 h 4.55083 l -2e-6,1.44992 z"
     style="font-weight:bold;font-size:40px;line-height:1.25;font-family:Poppins;-inkscape-font-specification:'Poppins Bold';white-space:pre;stroke-width:0.264583;fill:#d2f0fd;fill-opacity:1"
     id="path11103" />
</svg>
